<svg xmlns="http://www.w3.org/2000/svg" width="1024" height="4"><g fill="none" fill-rule="evenodd"><path fill="#D51387" d="M993.882 0H1024v4h-30.118z"/><path fill="#C90000" d="M963.765 0h30.118v4h-30.118z"/><path fill="#D51387" d="M933.647 0h30.118v4h-30.118zm-30.118 0h30.118v4h-30.118z"/><path fill="#C90000" d="M873.412 0h30.118v4h-30.118z"/><path fill="#D51387" d="M843.294 0h30.118v4h-30.118z"/><path fill="#D51387" d="M813.176 0h30.118v4h-30.118z"/><path fill="#7C28B6" d="M783.059 0h30.118v4h-30.118z"/><path fill="#D51387" d="M752.941 0h30.118v4h-30.118z"/><path fill="#7C28B6" d="M722.824 0h30.118v4h-30.118z"/><path fill="#7C28B6" d="M692.706 0h30.118v4h-30.118z"/><path fill="#1691DB" d="M662.588 0h30.118v4h-30.118z"/><path fill="#7C28B6" d="M632.471 0h30.118v4h-30.118z"/><path fill="#1691DB" d="M602.353 0h30.118v4h-30.118z"/><path fill="#1691DB" d="M572.235 0h30.118v4h-30.118z"/><path fill="#1691DB" d="M542.118 0h30.118v4h-30.118z"/><path fill="#00838D" d="M512 0h30.118v4H512z"/><path fill="#1691DB" d="M481.882 0H512v4h-30.118z"/><path fill="#00838D" d="M451.765 0h30.118v4h-30.118z"/><path fill="#4AA90F" d="M421.647 0h30.118v4h-30.118z"/><path fill="#00838D" d="M391.529 0h30.118v4h-30.118z"/><path fill="#00838D" d="M361.412 0h30.118v4h-30.118zm-30.118 0h30.118v4h-30.118z"/><path fill="#4AA90F" d="M301.176 0h30.118v4h-30.118z"/><path fill="#4AA90F" d="M271.059 0h30.118v4h-30.118z"/><path fill="#F46A00" d="M240.941 0h30.118v4h-30.118z"/><path fill="#4AA90F" d="M210.824 0h30.118v4h-30.118z"/><path fill="#F46A00" d="M180.706 0h30.118v4h-30.118zm-30.118 0h30.118v4h-30.118z"/><path fill="#F46A00" d="M120.471 0h30.118v4h-30.118z"/><path fill="#C90000" d="M90.353 0h30.118v4H90.353zM60.235 0h30.118v4H60.235z"/><path fill="#F46A00" d="M30.118 0h30.118v4H30.118z"/><path fill="#C90000" d="M0 0h30.118v4H0z"/></g></svg>