<svg xmlns="http://www.w3.org/2000/svg" xmlns:xlink="http://www.w3.org/1999/xlink" width="396" height="80" viewBox="0 0 396 80"><defs><path id="a" d="M166.287 10c5.294 0 10.88 3.206 11.22 9.471l-6.897.292c-.437-2.477-1.943-3.886-4.469-3.886-4.08 0-5.294 3.691-5.294 7.188 0 3.449.972 7.48 5.149 7.48 2.623 0 4.517-1.7 4.808-4.323l6.946.34c-1.312 6.946-5.732 10.054-11.9 10.054-8.014 0-12.434-5.488-12.434-13.21 0-7.87 4.76-13.406 12.871-13.406zm25.693 0c7.722 0 12.58 5.683 12.58 13.211 0 7.771-5.44 13.405-13.26 13.405-7.868 0-12.774-5.44-12.774-13.162 0-8.16 5.294-13.454 13.454-13.454zm73.207 0c6.848 0 11.414 1.992 11.414 9.471v10.88c0 2.574.194 4.225.825 5.343l.146.194h-7.528l-.34-2.283c-2.38 1.554-3.837 3.012-7.868 3.012-4.615 0-8.792-2.77-8.792-8.112 0-5.488 4.275-7.382 8.986-8.062l3.4-.486c2.137-.291 3.885-.486 3.885-2.088 0-2.089-2.671-2.332-3.837-2.332-2.623 0-4.42.972-4.42 3.157h-6.605C254.89 10.34 262.855 10 265.187 10zm19.373.747v14.425c0 2.769.53 5.44 3.9 5.44 3.564 0 4.286-2.963 4.286-6.751V10.747h6.887v25.16h-6.742v-2.77c-1.397 2.284-4.527 3.4-7.08 3.4-7.69 0-8.314-6.184-8.33-10.92v-14.87h7.079zm-131.323 17.93v7.238H146v-7.237h7.237zm66.233-18.531c3.011 0 5.537 1.408 6.703 4.322 1.554-2.72 4.42-4.274 7.528-4.274 1.894 0 4.128.583 5.634 1.797 2.588 2.118 2.714 4.69 2.72 7.72v16.177h-7.14V22.677c0-2.72-.243-6.023-3.642-6.023-3.183 0-3.763 2.322-3.865 4.75l-.012.365c-.007.304-.01.608-.01.908v13.21h-7.188v-14.23c0-2.137-.534-5.003-3.69-5.003-3.644 0-3.983 3.448-3.983 5.828v13.406h-7.092v-25.16h7.092v3.352c1.505-2.817 3.788-3.934 6.945-3.934zm31.682 18.505v7.237h-7.237v-7.237h7.237zm18.358-4.808c-.68.243-1.118.437-1.75.582-1.99.535-7.479.583-7.479 3.837 0 2.089 1.894 2.72 3.352 2.72.534 0 4.031-.048 5.877-3.254v-3.885zm-77.87-8.112c-4.323 0-5.78 3.692-5.78 7.431 0 3.643 1.36 7.626 5.683 7.626 4.42 0 5.682-4.128 5.682-7.868 0-3.595-1.36-7.189-5.585-7.189z"/></defs><g fill="none" fill-rule="evenodd"><g transform="translate(96 21)"><path fill="#000" d="M49.927 0c11.6 0 17.098 8.85 17.098 19.579v1.676h-24.34c.604 4.291 2.951 7.443 7.51 7.443 3.085 0 5.03-1.073 6.504-3.688l9.924.67c-2.481 7.443-9.052 11.064-16.696 11.064-10.996 0-17.567-7.711-17.567-18.372C32.36 7.979 39.266 0 49.927 0zm78.247 0c7.644 0 14.818 3.286 15.22 11.8l-9.252.47c-.201-3.688-3.219-5.029-6.102-5.029-1.877 0-4.827.336-4.827 2.95 0 5.298 21.188 1.14 21.188 14.886 0 8.985-8.114 11.667-15.69 11.667-7.376 0-16.092-3.286-16.092-12.472v-.402l9.387-.335c.603 4.492 2.95 5.766 7.376 5.766 2.145 0 4.961-.47 4.961-3.218 0-6.236-20.652-1.207-20.652-15.087 0-8.18 7.443-10.996 14.483-10.996zM19.244.201c2.614 0 5.23.67 7.308 2.28 3.956 3.017 4.627 7.241 4.627 11.935v21.322H21.054v-20.45c0-3.353-1.274-6.639-5.163-6.639-4.693 0-5.968 4.158-5.968 7.845v19.244H0V1.006h9.655v4.023C12.07 1.945 15.22.2 19.244.2zm55.09.805L79.63 22.73l5.432-21.724h8.716l5.364 21.724 5.297-21.724h10.058l-10.058 34.732h-9.186L89.42 12.27l-5.767 23.468h-9.32L64.21 1.006h10.125zM50.196 7.778c-4.225 0-6.37 2.011-7.443 5.967h13.88c-.336-3.486-2.884-5.967-6.437-5.967z"/><use fill="#A1A6A9" xlink:href="#a"/></g><g><rect width="14" height="14" x="33" fill="#C90000" rx="2"/><rect width="14" height="14" x="33" y="66" fill="#00838D" rx="2"/><rect width="14" height="14" y="33" fill="#7C28B6" rx="2"/><rect width="14" height="14" x="66" y="33" fill="#81888C" rx="2"/></g><g transform="rotate(45 40 40)"><rect width="14" height="14" x="33" fill="#F46A00" rx="2"/><rect width="14" height="14" x="33" y="66" fill="#1691DB" rx="2"/><rect width="14" height="14" y="33" fill="#D51387" rx="2"/><rect width="14" height="14" x="66" y="33" fill="#4AA90F" rx="2"/></g></g></svg>